<svg width="106" height="20" viewBox="0 0 106 20" fill="none" xmlns="http://www.w3.org/2000/svg">
<g clip-path="url(#clip0)">
<rect width="106" height="20" fill="black"/>
<path d="M23.9521 12.6934V18H20.1816V2.35938H26.4229C27.6188 2.35938 28.6751 2.58138 29.5918 3.02539C30.5156 3.46224 31.2282 4.08887 31.7295 4.90527C32.238 5.71452 32.4922 6.63477 32.4922 7.66602C32.4922 9.19141 31.9443 10.4124 30.8486 11.3291C29.7601 12.2386 28.2633 12.6934 26.3584 12.6934H23.9521ZM23.9521 9.78223H26.4229C27.1533 9.78223 27.7083 9.59961 28.0879 9.23438C28.4746 8.86914 28.668 8.35352 28.668 7.6875C28.668 6.95703 28.471 6.37337 28.0771 5.93652C27.6833 5.49967 27.1462 5.27767 26.4658 5.27051H23.9521V9.78223ZM38.8241 18H35.1932V6.37695H38.8241V18ZM34.9784 3.37988C34.9784 2.86426 35.1646 2.44173 35.537 2.1123C35.9093 1.78288 36.3927 1.61816 36.9871 1.61816C37.5815 1.61816 38.0649 1.78288 38.4373 2.1123C38.8097 2.44173 38.9959 2.86426 38.9959 3.37988C38.9959 3.89551 38.8097 4.31803 38.4373 4.64746C38.0649 4.97689 37.5815 5.1416 36.9871 5.1416C36.3927 5.1416 35.9093 4.97689 35.537 4.64746C35.1646 4.31803 34.9784 3.89551 34.9784 3.37988ZM45.9401 3.4873V6.37695H47.8522V8.89062H45.9401V14.208C45.9401 14.6449 46.0189 14.9492 46.1764 15.1211C46.334 15.293 46.6455 15.3789 47.111 15.3789C47.4691 15.3789 47.7699 15.3574 48.0134 15.3145V17.9033C47.3617 18.111 46.6813 18.2148 45.9723 18.2148C44.7262 18.2148 43.806 17.9212 43.2116 17.334C42.6172 16.7467 42.32 15.8551 42.32 14.6592V8.89062H40.8376V6.37695H42.32V3.4873H45.9401ZM55.5698 18.2148C53.7866 18.2148 52.3436 17.6849 51.2407 16.625C50.1379 15.5579 49.5864 14.1722 49.5864 12.4678V12.167C49.5864 10.9782 49.8049 9.92904 50.2417 9.01953C50.6857 8.11003 51.3303 7.4082 52.1753 6.91406C53.0204 6.41276 54.023 6.16211 55.1831 6.16211C56.8159 6.16211 58.105 6.67057 59.0503 7.6875C59.9956 8.69727 60.4683 10.1081 60.4683 11.9199V13.3271H53.271C53.3999 13.9788 53.6828 14.4909 54.1196 14.8633C54.5565 15.2357 55.1223 15.4219 55.8169 15.4219C56.9627 15.4219 57.8579 15.0208 58.5025 14.2188L60.1568 16.1738C59.7056 16.7969 59.0646 17.2946 58.2339 17.667C57.4103 18.0322 56.5223 18.2148 55.5698 18.2148ZM55.1616 8.95508C54.1017 8.95508 53.4715 9.6569 53.271 11.0605H56.9234V10.7812C56.9377 10.2012 56.7909 9.75358 56.4829 9.43848C56.175 9.11621 55.7346 8.95508 55.1616 8.95508ZM67.5091 15.4219C68.0176 15.4219 68.4115 15.2858 68.6908 15.0137C68.9701 14.7344 69.1061 14.3477 69.099 13.8535H72.4935C72.4935 15.1283 72.0352 16.1738 71.1185 16.9902C70.209 17.8066 69.0345 18.2148 67.5951 18.2148C65.905 18.2148 64.5729 17.6849 63.599 16.625C62.625 15.5651 62.138 14.097 62.138 12.2207V12.0703C62.138 10.8958 62.3529 9.861 62.7826 8.96582C63.2194 8.06348 63.8461 7.3724 64.6625 6.89258C65.4789 6.4056 66.4457 6.16211 67.5629 6.16211C69.0739 6.16211 70.2735 6.58105 71.1615 7.41895C72.0495 8.25684 72.4935 9.39193 72.4935 10.8242H69.099C69.099 10.2227 68.9522 9.76074 68.6586 9.43848C68.3649 9.11621 67.9711 8.95508 67.4769 8.95508C66.5388 8.95508 65.9909 9.55306 65.8334 10.749C65.7832 11.1286 65.7582 11.6514 65.7582 12.3174C65.7582 13.4847 65.8978 14.2939 66.1771 14.7451C66.4564 15.1963 66.9004 15.4219 67.5091 15.4219ZM78.2238 7.62305C78.9973 6.64909 79.9855 6.16211 81.1887 6.16211C82.4706 6.16211 83.4374 6.54167 84.0891 7.30078C84.7408 8.0599 85.0738 9.18066 85.0881 10.6631V18H81.4572V10.749C81.4572 10.1331 81.3319 9.68197 81.0812 9.39551C80.8306 9.10189 80.4045 8.95508 79.8029 8.95508C79.0581 8.95508 78.5318 9.19141 78.2238 9.66406V18H74.6037V1.5H78.2238V7.62305ZM90.002 14.4873C90.5749 14.4873 91.0511 14.6592 91.4307 15.0029C91.8103 15.3395 92 15.7728 92 16.3027C92 16.8327 91.8103 17.2695 91.4307 17.6133C91.0511 17.9499 90.5749 18.1182 90.002 18.1182C89.4219 18.1182 88.9421 17.9463 88.5625 17.6025C88.1901 17.2588 88.0039 16.8255 88.0039 16.3027C88.0039 15.7799 88.1901 15.3467 88.5625 15.0029C88.9421 14.6592 89.4219 14.4873 90.002 14.4873Z" fill="white"/>
</g>
<defs>
<clipPath id="clip0">
<rect width="106" height="20" fill="white"/>
</clipPath>
</defs>
</svg>
